<svg id="svg" version="1.1" xmlns="http://www.w3.org/2000/svg" xmlns:xlink="http://www.w3.org/1999/xlink" width="400" height="396.6101694915254" viewBox="0, 0, 400,396.6101694915254"><g id="svgg"><path id="path0" d="M154.365 0.747 C 154.365 1.754,153.406 1.890,147.659 1.699 C 144.880 1.607,142.857 1.694,142.857 1.905 C 142.857 2.106,142.384 2.180,141.806 2.070 C 141.130 1.941,140.847 2.018,141.013 2.286 C 141.174 2.547,140.971 2.625,140.475 2.496 C 139.540 2.251,138.550 2.971,138.064 4.250 C 137.707 5.188,136.972 5.314,132.425 5.219 C 131.223 5.194,130.854 5.364,130.586 6.066 C 130.060 7.441,128.923 8.207,126.984 8.490 C 123.965 8.932,123.641 8.993,122.682 9.302 C 122.162 9.469,121.511 10.179,121.203 10.916 C 120.777 11.936,120.474 12.185,119.857 12.024 C 118.100 11.564,117.033 12.216,117.132 13.687 C 117.244 15.358,117.237 15.365,115.278 15.536 C 114.405 15.612,113.454 15.853,113.166 16.071 C 111.678 17.197,111.072 17.976,111.274 18.504 C 111.398 18.826,111.334 18.987,111.133 18.863 C 110.664 18.573,108.290 19.891,107.917 20.650 C 106.903 22.711,106.676 23.395,106.845 23.870 C 107.202 24.872,106.441 25.701,105.355 25.493 C 104.792 25.386,104.361 25.454,104.396 25.645 C 104.546 26.469,104.322 26.740,103.944 26.190 C 103.605 25.696,103.547 25.729,103.599 26.389 C 103.771 28.537,103.546 29.762,102.979 29.762 C 102.653 29.762,101.855 30.495,101.205 31.392 L 100.025 33.021 100.025 62.301 C 100.026 91.086,100.039 91.584,100.807 91.785 C 101.236 91.897,101.587 92.229,101.587 92.522 C 101.587 92.966,109.677 93.036,150.000 92.938 L 198.413 92.820 198.413 96.410 L 198.413 100.000 127.679 100.074 C 88.775 100.115,55.038 100.111,52.708 100.065 C 50.377 100.019,48.368 100.148,48.243 100.351 C 48.118 100.553,47.660 100.626,47.227 100.513 C 46.259 100.260,45.640 101.492,46.470 102.018 C 46.866 102.269,46.882 102.371,46.528 102.375 C 46.255 102.378,46.032 102.649,46.032 102.976 C 46.032 103.443,45.454 103.579,43.353 103.607 C 36.374 103.700,36.033 103.805,35.956 105.887 C 35.916 106.974,35.822 107.044,34.661 106.857 C 33.685 106.699,33.316 106.831,32.980 107.458 C 32.693 107.994,32.288 108.193,31.763 108.056 C 31.172 107.901,30.767 108.205,30.133 109.280 C 29.444 110.448,29.119 110.668,28.364 110.478 C 26.805 110.087,25.899 110.623,25.621 112.103 C 25.336 113.626,24.931 113.994,23.454 114.073 C 22.592 114.119,22.430 114.325,22.385 115.439 C 22.325 116.932,21.782 117.418,20.457 117.165 C 19.951 117.068,19.400 117.212,19.231 117.484 C 19.033 117.805,19.087 117.880,19.383 117.697 C 19.635 117.541,19.841 117.603,19.841 117.834 C 19.841 118.065,19.553 118.254,19.200 118.254 C 18.724 118.254,18.609 118.519,18.754 119.277 C 18.966 120.388,18.512 120.726,16.721 120.794 C 15.664 120.834,15.631 120.905,15.518 123.334 C 15.489 123.960,15.124 124.371,14.356 124.638 C 13.127 125.066,11.905 127.293,11.905 129.102 C 11.905 129.683,11.548 130.516,11.111 130.952 C 10.675 131.389,10.317 131.567,10.317 131.349 C 10.317 131.131,10.062 130.952,9.749 130.952 C 9.089 130.952,8.700 131.955,8.732 133.579 C 8.784 136.293,7.770 139.109,7.119 138.056 C 6.774 137.498,5.556 137.866,5.556 138.528 C 5.556 138.841,5.775 138.814,6.250 138.441 C 6.864 137.960,6.888 137.970,6.452 138.529 C 6.181 138.876,6.092 139.306,6.253 139.485 C 6.415 139.663,6.235 139.697,5.853 139.560 C 5.338 139.375,5.159 139.519,5.159 140.115 C 5.159 140.653,5.323 140.821,5.655 140.622 C 6.033 140.394,6.030 140.473,5.641 140.953 C 5.360 141.300,5.158 141.736,5.192 141.923 C 5.681 144.647,5.095 147.619,4.067 147.625 C 2.457 147.634,1.845 148.168,2.073 149.363 C 2.182 149.931,2.116 150.397,1.927 150.397 C 1.737 150.397,1.603 152.227,1.628 154.464 C 1.686 159.715,1.718 159.524,0.794 159.524 C 0.005 159.524,0.000 159.788,0.000 197.817 L 0.000 236.111 0.893 236.151 C 1.749 236.189,1.745 236.203,0.794 236.508 L -0.198 236.826 0.794 236.905 L 1.786 236.984 0.794 237.302 L -0.198 237.619 0.794 237.698 L 1.786 237.778 0.794 238.074 L -0.198 238.371 0.794 238.531 C 1.774 238.689,1.785 238.732,1.700 242.262 C 1.514 249.997,2.102 252.381,4.195 252.381 C 5.102 252.381,5.160 252.516,5.174 254.663 C 5.216 260.720,5.599 262.137,7.260 262.377 C 7.923 262.473,8.190 262.897,8.461 264.286 C 8.652 265.268,8.992 266.295,9.215 266.567 C 9.496 266.911,9.484 267.063,9.176 267.063 C 8.584 267.063,8.605 268.367,9.206 268.968 C 9.859 269.621,11.645 269.604,11.275 268.948 C 11.059 268.567,11.111 268.560,11.497 268.916 C 11.773 269.171,11.989 270.113,11.977 271.008 C 11.964 271.903,12.102 272.544,12.282 272.433 C 12.462 272.322,12.601 272.452,12.591 272.723 C 12.539 274.168,12.836 274.680,14.237 275.564 C 15.545 276.390,15.754 276.711,15.638 277.713 C 15.472 279.135,16.283 279.928,17.637 279.669 C 18.529 279.498,18.621 279.619,18.730 281.110 C 18.796 282.006,19.028 282.748,19.246 282.760 C 20.607 282.837,22.230 283.481,22.272 283.960 C 22.299 284.270,22.344 284.926,22.371 285.417 C 22.411 286.131,22.667 286.317,23.652 286.349 C 25.342 286.404,25.719 286.719,25.496 287.887 C 25.359 288.600,25.477 288.889,25.903 288.889 C 26.233 288.889,26.613 289.177,26.748 289.528 C 26.916 289.967,27.341 290.117,28.099 290.006 C 29.086 289.861,29.190 289.952,29.075 290.854 C 28.848 292.627,29.470 293.025,32.718 293.189 C 35.652 293.338,35.714 293.362,35.720 294.389 C 35.732 296.334,36.165 296.557,40.145 296.672 L 43.849 296.778 45.274 298.369 L 46.700 299.960 69.679 299.881 C 91.239 299.806,92.655 299.759,92.604 299.111 C 92.574 298.732,92.698 298.513,92.880 298.625 C 93.062 298.737,93.224 285.302,93.242 268.770 C 93.262 249.824,93.417 238.567,93.661 238.323 C 93.912 238.072,94.048 238.103,94.048 238.413 C 94.048 239.183,95.570 238.958,96.018 238.121 C 96.598 237.038,96.547 235.993,95.933 236.362 C 95.567 236.582,95.573 236.492,95.957 236.018 C 96.243 235.665,96.445 235.140,96.406 234.851 C 96.036 232.125,96.483 228.175,97.161 228.175 C 98.590 228.175,100.056 225.423,99.863 223.104 C 99.774 222.035,99.988 221.626,101.068 220.802 C 101.790 220.252,102.381 219.442,102.381 219.004 C 102.381 218.566,102.517 218.291,102.684 218.395 C 102.851 218.498,103.008 218.067,103.034 217.437 C 103.111 215.564,103.461 215.079,104.735 215.079 C 106.088 215.079,106.927 213.954,106.651 212.510 C 106.515 211.798,106.630 211.656,107.214 211.808 C 107.787 211.958,107.895 211.837,107.707 211.258 C 107.508 210.647,107.540 210.621,107.888 211.111 C 108.528 212.012,109.696 211.100,109.847 209.583 C 109.915 208.896,110.183 208.316,110.442 208.294 C 110.701 208.273,111.359 208.228,111.905 208.195 C 112.714 208.146,112.970 207.842,113.294 206.548 C 113.662 205.074,113.790 204.960,115.079 204.960 C 116.185 204.960,116.478 204.799,116.521 204.167 C 116.666 202.029,117.081 201.589,118.995 201.543 C 123.334 201.439,123.215 201.473,123.201 200.327 C 123.194 199.743,123.328 199.352,123.499 199.458 C 123.670 199.564,123.810 199.372,123.810 199.031 C 123.810 198.382,125.606 198.223,131.250 198.372 C 132.614 198.408,133.730 198.278,133.730 198.083 C 133.730 197.889,134.148 197.809,134.660 197.907 C 135.881 198.140,137.029 196.992,136.796 195.771 L 136.618 194.841 196.384 194.802 C 262.218 194.758,259.851 194.788,258.730 194.029 C 258.283 193.727,258.394 193.687,259.174 193.867 C 260.021 194.063,260.399 193.870,261.218 192.824 C 262.198 191.572,262.297 191.541,265.238 191.567 C 267.519 191.588,268.254 191.464,268.254 191.059 C 268.254 190.764,268.430 190.414,268.646 190.281 C 268.879 190.137,268.932 190.315,268.777 190.719 C 268.595 191.193,268.663 191.309,268.999 191.101 C 269.302 190.914,269.402 190.297,269.267 189.449 L 269.052 188.095 271.530 188.045 C 276.197 187.951,275.986 188.013,276.055 186.706 C 276.089 186.052,276.134 185.303,276.154 185.042 C 276.178 184.725,276.716 184.631,277.778 184.759 C 278.651 184.865,279.365 184.790,279.365 184.594 C 279.365 184.398,279.813 184.323,280.359 184.427 C 281.604 184.665,282.414 184.014,282.744 182.512 C 282.943 181.607,283.218 181.349,283.984 181.349 C 284.531 181.349,284.860 181.175,284.725 180.957 C 284.586 180.732,284.745 180.665,285.095 180.800 C 285.470 180.944,285.813 180.759,285.981 180.323 C 286.136 179.919,286.062 179.547,285.811 179.463 C 285.092 179.224,286.575 177.778,287.540 177.778 C 288.844 177.778,289.360 176.835,289.545 174.111 C 289.639 172.745,289.887 171.567,290.098 171.494 C 290.309 171.421,290.404 171.236,290.310 171.084 C 290.216 170.931,290.755 170.827,291.507 170.852 C 293.011 170.902,293.192 170.565,293.172 167.753 C 293.163 166.605,293.402 166.069,294.203 165.439 C 294.777 164.988,295.154 164.471,295.043 164.291 C 294.931 164.111,295.214 164.061,295.670 164.180 C 296.382 164.366,296.489 164.233,296.422 163.250 C 296.379 162.619,296.363 160.273,296.387 158.036 L 296.429 153.968 297.570 153.968 C 299.940 153.968,299.794 157.495,299.891 98.054 C 299.940 68.023,299.869 43.185,299.733 42.857 C 299.597 42.530,299.522 41.883,299.566 41.419 C 299.671 40.325,298.613 39.286,297.392 39.286 C 296.447 39.286,296.044 36.805,296.408 33.231 C 296.447 32.848,296.155 32.420,295.760 32.280 C 294.691 31.904,292.851 30.092,293.110 29.673 C 293.933 28.342,292.799 25.854,291.250 25.592 C 290.188 25.412,289.669 25.115,289.640 24.668 C 289.617 24.305,289.573 23.652,289.541 23.216 C 289.504 22.693,289.180 22.406,288.591 22.373 C 285.997 22.224,286.116 22.299,286.381 20.970 C 286.546 20.146,286.490 19.805,286.218 19.974 C 285.986 20.117,285.828 19.926,285.858 19.539 C 285.900 19.005,285.600 18.849,284.524 18.849 C 283.201 18.849,283.125 18.774,282.937 17.262 C 282.757 15.825,282.625 15.669,281.548 15.612 C 280.893 15.577,280.134 15.533,279.861 15.513 C 279.588 15.493,279.365 15.139,279.365 14.727 C 279.365 12.829,277.729 12.059,273.409 11.924 C 273.080 11.913,272.575 11.529,272.288 11.070 C 271.952 10.531,271.930 10.335,272.226 10.518 C 272.536 10.710,272.643 10.496,272.553 9.865 C 272.464 9.233,272.117 8.886,271.484 8.796 C 270.789 8.698,270.629 8.800,270.865 9.193 C 271.113 9.604,271.056 9.624,270.612 9.280 C 270.297 9.037,269.772 8.814,269.444 8.784 C 266.550 8.518,265.915 8.235,265.666 7.102 C 265.403 5.907,264.000 5.195,263.056 5.778 C 262.749 5.968,262.679 5.908,262.861 5.613 C 263.055 5.299,262.789 5.170,262.030 5.211 C 261.415 5.244,259.707 5.246,258.234 5.215 L 255.556 5.159 255.556 3.982 C 255.556 2.140,254.538 1.849,247.817 1.770 C 242.063 1.702,241.861 1.671,241.738 0.850 C 241.578 -0.224,240.476 -0.273,240.476 0.794 C 240.476 1.230,240.298 1.587,240.079 1.587 C 239.861 1.587,239.683 1.230,239.683 0.794 C 239.683 0.005,239.418 0.000,197.024 0.000 C 155.510 0.000,154.365 0.020,154.365 0.747 M113.103 18.046 C 112.827 18.379,112.417 18.651,112.191 18.651 C 111.966 18.651,112.106 18.293,112.502 17.855 C 113.323 16.948,113.870 17.122,113.103 18.046 M103.061 31.633 C 102.697 31.996,102.262 32.156,102.093 31.988 C 101.925 31.819,102.131 31.430,102.551 31.122 C 103.542 30.398,103.919 30.775,103.061 31.633 M147.041 34.948 C 147.185 35.181,147.552 35.276,147.858 35.159 C 148.163 35.041,148.413 35.119,148.413 35.330 C 148.413 35.541,149.127 35.714,150.000 35.714 C 151.043 35.714,151.587 35.892,151.587 36.234 C 151.587 37.193,152.584 38.129,153.737 38.252 C 154.669 38.351,154.903 38.585,155.002 39.517 C 155.125 40.669,156.061 41.667,157.020 41.667 C 157.306 41.667,157.542 41.801,157.545 41.964 C 157.547 42.128,157.573 45.384,157.601 49.199 L 157.653 56.136 156.108 56.144 C 154.489 56.151,154.527 56.096,154.407 58.631 C 154.368 59.461,154.184 59.524,151.786 59.524 C 149.006 59.524,147.619 60.307,147.619 61.876 C 147.619 62.562,147.265 62.653,144.147 62.771 C 140.027 62.925,140.372 63.062,140.320 61.252 C 140.293 60.331,140.057 59.715,139.683 59.591 C 139.156 59.417,139.155 59.482,139.676 60.154 C 140.215 60.849,140.186 60.846,139.336 60.119 C 138.826 59.683,138.338 59.370,138.252 59.425 C 137.490 59.907,136.638 59.421,136.796 58.594 C 137.029 57.373,135.881 56.225,134.660 56.458 C 133.810 56.621,133.534 56.321,133.697 55.415 C 133.731 55.228,133.529 54.792,133.248 54.446 C 132.828 53.927,132.832 53.873,133.272 54.137 C 133.657 54.369,133.766 54.252,133.663 53.718 C 133.557 53.165,133.169 52.974,132.137 52.969 L 130.754 52.961 130.641 48.650 C 130.519 43.995,130.801 43.203,132.862 42.415 C 133.392 42.212,133.750 41.771,133.709 41.369 C 133.473 39.044,133.689 38.591,134.963 38.740 C 136.432 38.911,137.227 38.543,136.451 38.052 C 136.027 37.783,136.055 37.709,136.581 37.704 C 137.013 37.701,137.293 37.313,137.374 36.607 C 137.494 35.565,137.585 35.522,139.385 35.651 C 140.422 35.725,141.270 35.616,141.270 35.407 C 141.270 35.187,142.365 35.108,143.901 35.219 C 145.774 35.354,146.453 35.281,146.258 34.966 C 146.108 34.723,146.163 34.524,146.382 34.524 C 146.600 34.524,146.896 34.715,147.041 34.948 M299.017 41.652 C 298.819 41.973,298.576 41.896,298.211 41.397 C 297.533 40.469,297.931 39.825,298.705 40.598 C 299.032 40.926,299.173 41.400,299.017 41.652 M136.256 58.528 C 136.111 58.907,135.825 58.817,135.186 58.193 C 134.667 57.686,134.474 57.229,134.708 57.064 C 135.241 56.687,136.504 57.882,136.256 58.528 M31.845 109.601 C 31.366 110.080,30.872 110.369,30.746 110.243 C 30.449 109.947,31.666 108.730,32.259 108.730 C 32.511 108.730,32.324 109.122,31.845 109.601 M260.714 192.015 C 260.714 192.522,259.547 193.410,259.259 193.122 C 258.971 192.833,259.859 191.667,260.366 191.667 C 260.558 191.667,260.714 191.823,260.714 192.015 M101.587 218.999 C 101.587 219.506,100.420 220.394,100.132 220.106 C 99.844 219.818,100.732 218.651,101.239 218.651 C 101.431 218.651,101.587 218.807,101.587 218.999 " stroke="none" fill="#2c6cb4" fill-rule="evenodd"></path><path id="path1" d="M128.435 6.678 C 128.073 7.077,127.783 7.658,127.790 7.968 C 127.797 8.323,127.962 8.239,128.236 7.738 C 128.475 7.302,128.950 6.721,129.292 6.448 C 129.634 6.176,129.729 5.952,129.502 5.952 C 129.276 5.952,128.796 6.279,128.435 6.678 M111.122 16.455 C 110.299 17.447,110.863 17.709,111.791 16.766 C 112.357 16.191,112.480 15.873,112.138 15.873 C 111.845 15.873,111.388 16.135,111.122 16.455 M293.254 30.090 C 293.254 30.475,294.967 32.143,295.363 32.143 C 295.890 32.143,295.626 31.340,294.841 30.556 C 294.024 29.738,293.254 29.512,293.254 30.090 M131.418 43.379 C 130.480 44.377,130.333 44.841,130.952 44.841 C 131.467 44.841,132.937 43.372,132.937 42.857 C 132.937 42.199,132.331 42.407,131.418 43.379 M307.011 97.090 C 306.865 97.235,306.743 109.780,306.739 124.967 L 306.732 152.579 305.846 153.402 C 305.359 153.854,304.648 154.339,304.266 154.480 C 303.643 154.711,303.571 155.412,303.571 161.297 L 303.571 167.857 302.262 167.857 C 300.346 167.857,300.000 168.439,300.000 171.667 L 300.000 174.524 298.512 174.875 L 297.024 175.225 296.825 178.184 C 296.653 180.759,296.524 181.159,295.833 181.262 C 293.332 181.635,293.254 181.698,293.254 183.341 C 293.254 184.919,293.253 184.921,291.667 184.921 C 290.252 184.921,290.079 185.025,290.079 185.880 C 290.079 187.561,289.643 188.092,288.052 188.347 C 286.566 188.584,286.508 188.651,286.508 190.130 C 286.508 191.611,286.459 191.667,285.168 191.667 C 283.187 191.667,281.075 192.692,280.476 193.944 C 280.032 194.874,279.650 195.070,277.949 195.242 C 275.706 195.468,273.998 196.401,273.614 197.608 C 273.377 198.357,273.031 198.413,268.652 198.413 C 263.429 198.413,262.698 198.708,262.698 200.822 L 262.698 201.984 200.694 201.990 C 166.592 201.994,138.490 202.127,138.244 202.288 C 137.999 202.448,137.672 203.160,137.518 203.869 L 137.239 205.159 133.996 205.181 C 129.722 205.211,128.087 205.776,127.611 207.389 C 127.262 208.573,127.132 208.639,124.688 208.867 C 121.871 209.130,121.229 209.476,120.865 210.929 C 120.697 211.598,120.342 211.906,119.735 211.910 C 117.584 211.923,117.063 212.318,117.063 213.935 C 117.063 215.461,117.049 215.476,115.519 215.476 C 113.896 215.476,113.492 215.908,113.492 217.640 C 113.492 218.394,113.221 218.593,111.905 218.803 C 110.361 219.050,110.317 219.100,110.317 220.640 C 110.317 222.028,110.205 222.222,109.401 222.222 C 107.615 222.222,107.062 223.065,106.843 226.121 C 106.654 228.762,106.574 228.968,105.733 228.968 C 103.622 228.968,103.571 229.095,103.571 234.368 L 103.571 239.286 102.480 239.292 C 100.012 239.306,100.198 234.395,100.198 299.309 C 100.198 364.846,100.038 360.714,102.589 360.714 C 103.551 360.714,103.571 360.780,103.571 363.810 C 103.571 367.202,103.902 367.857,105.612 367.857 C 106.609 367.857,106.711 367.999,106.822 369.544 C 106.944 371.222,106.953 371.231,108.631 371.352 C 110.309 371.474,110.317 371.482,110.317 373.039 C 110.317 374.596,110.325 374.603,111.882 374.603 C 113.439 374.603,113.447 374.611,113.568 376.290 C 113.690 377.968,113.699 377.977,115.377 378.098 C 117.055 378.220,117.063 378.228,117.063 379.785 C 117.063 381.342,117.071 381.349,118.627 381.349 C 120.151 381.349,120.200 381.393,120.524 383.036 L 120.856 384.722 123.888 384.838 L 126.920 384.953 127.177 386.476 C 127.463 388.167,128.246 388.478,132.242 388.488 C 134.120 388.492,134.127 388.497,134.127 389.838 C 134.127 391.568,134.426 391.667,139.664 391.667 L 143.946 391.667 144.192 393.201 C 144.494 395.095,145.048 395.227,152.679 395.234 C 157.671 395.238,157.937 395.278,157.937 396.032 C 157.937 396.821,158.201 396.825,201.786 396.825 C 245.370 396.825,245.635 396.821,245.635 396.032 C 245.635 395.273,245.899 395.238,251.643 395.238 C 258.225 395.238,260.789 394.550,261.538 392.581 C 261.847 391.767,262.165 391.688,265.560 391.583 L 269.246 391.468 269.369 389.980 L 269.492 388.492 271.949 388.487 C 274.926 388.480,276.190 388.178,276.190 387.472 C 276.190 386.155,278.124 384.963,280.455 384.841 L 282.738 384.722 282.860 383.036 L 282.982 381.349 284.745 381.349 L 286.508 381.349 286.508 379.762 L 286.508 378.175 288.095 378.175 L 289.683 378.175 289.683 376.389 L 289.683 374.603 291.468 374.603 L 293.254 374.603 293.254 373.016 C 293.254 371.602,293.359 371.429,294.214 371.429 C 296.265 371.429,296.429 371.162,296.429 367.819 L 296.429 364.692 297.981 364.444 C 299.114 364.263,299.596 363.966,299.762 363.348 C 300.249 361.531,300.020 304.544,299.524 304.048 C 299.159 303.682,287.690 303.571,250.317 303.571 L 201.587 303.571 201.587 300.198 L 201.587 296.825 276.760 296.825 C 357.489 296.825,353.968 296.924,353.968 294.653 L 353.968 293.254 357.911 293.254 C 362.686 293.254,363.724 292.924,364.082 291.294 C 364.303 290.287,364.541 290.079,365.475 290.079 C 367.032 290.079,367.857 289.706,367.857 289.002 C 367.857 287.756,369.564 286.522,371.297 286.515 C 373.650 286.505,374.151 286.212,374.439 284.681 C 374.664 283.478,374.863 283.301,376.235 283.082 C 377.719 282.844,377.778 282.777,377.778 281.298 C 377.778 279.825,377.831 279.762,379.087 279.762 C 380.737 279.762,381.349 279.156,381.349 277.525 C 381.349 276.375,381.480 276.228,382.599 276.116 C 384.160 275.961,384.425 275.464,384.735 272.123 L 384.984 269.444 386.540 269.444 L 388.095 269.444 388.095 267.659 C 388.095 266.138,388.213 265.873,388.889 265.873 C 390.385 265.873,391.198 264.527,391.490 261.566 C 391.727 259.163,391.879 258.763,392.628 258.575 C 394.019 258.226,394.841 255.947,394.841 252.437 L 394.841 249.346 396.329 248.979 C 398.138 248.532,398.338 247.674,398.383 240.179 C 398.411 235.592,398.457 235.317,399.206 235.317 C 399.994 235.317,400.000 235.053,400.000 198.214 C 400.000 161.376,399.994 161.111,399.206 161.111 C 398.449 161.111,398.412 160.845,398.407 155.258 C 398.400 147.792,398.355 147.619,396.382 147.619 L 394.841 147.619 394.841 142.649 C 394.841 137.860,394.809 137.666,393.948 137.337 C 392.345 136.724,391.783 135.642,391.520 132.663 C 391.182 128.825,390.787 127.909,389.331 127.589 C 388.265 127.355,388.125 127.151,388.018 125.668 C 387.902 124.073,387.841 124.003,386.460 123.888 C 384.927 123.760,384.524 122.708,384.524 118.836 C 384.524 117.478,384.011 117.063,382.333 117.063 C 381.538 117.063,381.379 116.839,381.274 115.575 C 381.158 114.178,381.048 114.065,379.464 113.713 C 377.841 113.354,377.778 113.283,377.778 111.829 C 377.778 110.330,377.764 110.317,376.190 110.317 C 374.644 110.317,374.603 110.282,374.603 108.943 C 374.603 107.430,373.809 106.746,372.050 106.746 C 371.260 106.746,371.030 106.546,371.026 105.853 C 371.014 104.135,370.442 103.796,367.282 103.636 L 364.286 103.485 364.286 102.153 C 364.286 100.301,363.491 100.000,358.600 100.000 C 354.145 100.000,353.968 99.916,353.968 97.785 L 353.968 96.825 330.622 96.825 C 317.781 96.825,307.156 96.944,307.011 97.090 M30.247 107.761 C 29.762 108.100,29.386 108.681,29.411 109.050 C 29.450 109.623,29.485 109.615,29.645 108.994 C 29.749 108.593,30.398 108.020,31.087 107.719 C 31.777 107.419,32.069 107.167,31.735 107.158 C 31.402 107.150,30.732 107.421,30.247 107.761 M0.000 159.127 C 0.000 159.345,0.357 159.524,0.794 159.524 C 1.230 159.524,1.587 159.345,1.587 159.127 C 1.587 158.909,1.230 158.730,0.794 158.730 C 0.357 158.730,0.000 158.909,0.000 159.127 M294.548 166.132 C 293.523 167.131,293.428 167.341,294.078 167.171 C 294.808 166.980,296.365 165.183,295.986 164.968 C 295.902 164.920,295.255 165.444,294.548 166.132 M261.905 192.438 C 261.905 192.862,261.508 193.487,261.023 193.827 C 260.538 194.166,260.346 194.444,260.598 194.444 C 261.313 194.444,262.302 193.276,262.302 192.432 C 262.302 192.011,262.212 191.667,262.103 191.667 C 261.994 191.667,261.905 192.014,261.905 192.438 M98.526 227.659 C 98.043 228.161,97.792 228.571,97.969 228.571 C 98.356 228.571,99.799 227.029,99.568 226.862 C 99.478 226.798,99.009 227.156,98.526 227.659 M43.267 297.123 C 43.289 297.663,44.231 298.672,45.187 299.181 C 45.966 299.596,46.075 299.590,45.822 299.147 C 44.961 297.636,43.230 296.266,43.267 297.123 M256.677 335.291 C 257.114 336.543,258.885 337.295,261.409 337.299 C 262.603 337.301,262.698 337.399,262.698 338.611 C 262.698 340.267,263.304 340.873,264.960 340.873 L 266.270 340.873 266.270 343.377 C 266.270 346.143,266.755 347.101,268.254 347.293 C 269.132 347.406,269.260 347.634,269.366 349.280 L 269.486 351.140 267.977 351.264 L 266.468 351.389 266.353 354.641 L 266.238 357.892 264.568 358.014 C 262.957 358.131,262.892 358.187,262.776 359.585 L 262.655 361.036 259.006 361.173 C 256.999 361.248,253.170 361.250,250.496 361.177 L 245.635 361.045 245.635 359.491 C 245.635 357.942,245.629 357.937,244.048 357.937 L 242.460 357.937 242.460 355.022 C 242.460 353.244,242.172 351.232,241.720 349.863 C 241.175 348.210,241.109 347.619,241.472 347.619 C 242.076 347.619,242.460 345.833,242.460 343.030 L 242.460 340.921 243.948 340.798 C 245.393 340.678,245.440 340.625,245.559 338.988 L 245.681 337.302 248.237 337.302 C 251.009 337.302,252.381 336.513,252.381 334.921 C 252.381 333.458,256.151 333.782,256.677 335.291 M260.417 392.537 C 259.938 393.016,259.426 393.289,259.280 393.142 C 258.894 392.756,259.907 391.667,260.653 391.667 C 261.163 391.667,261.117 391.838,260.417 392.537 " stroke="none" fill="#535353" fill-rule="evenodd"></path><path id="path2" d="M128.968 6.746 C 128.151 7.563,127.925 8.333,128.502 8.333 C 128.888 8.333,130.556 6.620,130.556 6.224 C 130.556 5.698,129.753 5.961,128.968 6.746 M121.500 9.636 C 120.861 10.406,120.165 12.394,120.636 12.102 C 120.854 11.968,121.032 11.601,121.032 11.286 C 121.032 10.972,121.389 10.357,121.825 9.921 C 122.262 9.484,122.462 9.127,122.271 9.127 C 122.079 9.127,121.732 9.356,121.500 9.636 M111.688 16.847 C 110.615 17.920,110.479 18.458,111.172 18.887 C 111.442 19.054,111.523 18.997,111.370 18.748 C 110.956 18.079,111.512 17.089,112.646 16.472 C 113.221 16.160,113.459 15.898,113.176 15.889 C 112.894 15.880,112.224 16.311,111.688 16.847 M112.502 17.855 C 112.106 18.293,111.966 18.651,112.191 18.651 C 112.691 18.651,113.681 17.517,113.414 17.250 C 113.309 17.145,112.898 17.417,112.502 17.855 M108.209 19.544 C 107.503 20.065,106.502 22.817,107.168 22.405 C 107.373 22.279,107.540 21.856,107.540 21.467 C 107.540 20.732,108.489 19.710,109.524 19.329 C 110.038 19.140,110.035 19.106,109.500 19.079 C 109.160 19.062,108.579 19.271,108.209 19.544 M101.172 30.590 C 100.542 31.767,100.862 31.842,101.705 30.715 C 102.097 30.191,102.237 29.762,102.017 29.762 C 101.796 29.762,101.416 30.134,101.172 30.590 M102.551 31.122 C 102.131 31.430,101.925 31.819,102.093 31.988 C 102.262 32.156,102.697 31.996,103.061 31.633 C 103.919 30.775,103.542 30.398,102.551 31.122 M141.270 35.359 C 141.270 35.788,142.735 35.837,142.994 35.417 C 143.095 35.253,142.749 35.093,142.224 35.062 C 141.699 35.030,141.270 35.164,141.270 35.359 M154.808 40.156 C 154.757 40.903,156.192 42.072,157.132 42.048 C 157.465 42.039,157.174 41.787,156.484 41.487 C 155.794 41.187,155.145 40.613,155.042 40.213 C 154.882 39.592,154.847 39.583,154.808 40.156 M297.900 40.343 C 297.784 40.530,297.924 41.005,298.211 41.397 C 298.576 41.896,298.819 41.973,299.017 41.652 C 299.173 41.400,299.032 40.926,298.705 40.598 C 298.378 40.271,298.015 40.156,297.900 40.343 M299.726 52.579 C 299.728 53.889,299.802 54.377,299.891 53.664 C 299.979 52.950,299.977 51.879,299.887 51.283 C 299.796 50.686,299.724 51.270,299.726 52.579 M134.708 57.064 C 134.474 57.229,134.667 57.686,135.186 58.193 C 135.825 58.817,136.111 58.907,136.256 58.528 C 136.504 57.882,135.241 56.687,134.708 57.064 M140.235 61.739 C 140.368 62.084,140.476 62.530,140.476 62.731 C 140.476 63.190,140.907 63.187,141.641 62.723 C 142.113 62.424,142.122 62.255,141.692 61.737 C 141.003 60.907,139.917 60.908,140.235 61.739 M100.000 92.022 C 100.000 92.249,100.299 92.321,100.664 92.181 C 101.167 91.987,101.266 92.087,101.073 92.590 C 100.933 92.955,101.005 93.254,101.232 93.254 C 101.459 93.254,101.586 92.944,101.513 92.564 C 101.370 91.824,100.000 91.333,100.000 92.022 M129.266 93.155 C 141.979 93.213,162.783 93.213,175.496 93.155 C 188.209 93.097,177.808 93.049,152.381 93.049 C 126.954 93.049,116.553 93.097,129.266 93.155 M55.258 100.274 C 55.640 100.373,56.265 100.373,56.647 100.274 C 57.029 100.174,56.716 100.092,55.952 100.092 C 55.188 100.092,54.876 100.174,55.258 100.274 M32.693 107.316 C 32.572 107.630,32.235 107.795,31.943 107.682 C 31.222 107.406,29.762 108.230,29.762 108.914 C 29.762 109.218,29.481 109.748,29.138 110.091 C 28.795 110.434,28.688 110.714,28.901 110.714 C 29.113 110.714,29.667 110.070,30.132 109.282 C 30.767 108.205,31.172 107.901,31.763 108.056 C 32.278 108.191,32.690 108.000,32.956 107.504 C 33.179 107.087,33.260 106.746,33.136 106.746 C 33.013 106.746,32.813 107.003,32.693 107.316 M31.160 109.373 C 30.807 109.726,30.621 110.118,30.746 110.243 C 30.872 110.369,31.366 110.080,31.845 109.601 C 32.324 109.122,32.511 108.730,32.259 108.730 C 32.008 108.730,31.514 109.019,31.160 109.373 M14.026 124.385 C 12.903 124.874,11.933 126.351,12.416 126.834 C 12.519 126.937,12.713 126.584,12.847 126.050 C 12.999 125.442,13.536 124.924,14.283 124.663 C 14.939 124.435,15.476 124.149,15.476 124.029 C 15.476 123.749,15.504 123.742,14.026 124.385 M7.143 137.945 C 7.143 138.473,7.251 138.500,7.738 138.095 C 8.065 137.824,8.333 137.534,8.333 137.451 C 8.333 137.369,8.065 137.302,7.738 137.302 C 7.411 137.302,7.143 137.591,7.143 137.945 M6.147 138.499 C 6.010 138.720,5.708 138.785,5.477 138.642 C 5.239 138.495,5.132 138.611,5.231 138.908 C 5.328 139.198,5.663 139.515,5.977 139.613 C 6.291 139.711,6.415 139.649,6.253 139.476 C 6.092 139.302,6.158 138.921,6.401 138.628 C 6.644 138.335,6.743 138.095,6.620 138.095 C 6.497 138.095,6.284 138.277,6.147 138.499 M295.023 164.258 C 295.145 164.457,294.833 164.946,294.328 165.345 C 292.808 166.548,292.561 167.725,294.051 166.664 C 295.634 165.537,296.221 164.443,295.409 164.132 C 295.074 164.003,294.900 164.060,295.023 164.258 M290.774 171.151 C 290.096 171.419,289.683 171.879,289.683 172.368 C 289.683 173.130,289.711 173.127,290.601 172.291 C 291.106 171.817,291.731 171.429,291.990 171.429 C 292.249 171.429,292.460 171.250,292.460 171.032 C 292.460 170.561,292.222 170.578,290.774 171.151 M269.157 188.889 C 269.224 189.781,269.841 189.921,270.556 189.206 C 271.291 188.471,271.125 188.095,270.064 188.095 C 269.342 188.095,269.112 188.296,269.157 188.889 M259.751 192.290 C 259.330 192.598,259.112 192.974,259.265 193.127 C 259.418 193.280,259.840 193.108,260.204 192.744 C 261.061 191.887,260.740 191.567,259.751 192.290 M260.993 193.092 C 260.601 193.618,260.031 194.048,259.727 194.048 C 259.423 194.048,259.068 194.219,258.938 194.429 C 258.582 195.005,260.986 194.081,261.522 193.435 C 261.774 193.132,261.918 192.716,261.843 192.510 C 261.768 192.305,261.386 192.567,260.993 193.092 M107.546 211.024 C 107.536 211.873,108.747 212.060,109.455 211.319 C 110.083 210.663,110.070 210.655,109.214 211.166 C 108.439 211.629,108.255 211.621,107.930 211.111 C 107.666 210.696,107.550 210.670,107.546 211.024 M102.646 218.122 C 102.500 218.267,102.381 218.701,102.381 219.085 C 102.381 219.469,101.910 220.154,101.335 220.606 C 100.760 221.058,100.458 221.429,100.664 221.429 C 101.446 221.429,102.398 220.388,102.752 219.147 C 103.128 217.828,103.110 217.657,102.646 218.122 M100.389 219.256 C 100.113 219.588,99.997 219.971,100.132 220.106 C 100.420 220.394,101.587 219.506,101.587 218.999 C 101.587 218.452,100.941 218.591,100.389 219.256 M0.670 238.749 C 1.206 238.865,1.605 239.311,1.711 239.910 C 1.860 240.757,1.876 240.741,1.834 239.787 C 1.796 238.914,1.584 238.677,0.794 238.625 C -0.033 238.571,-0.054 238.592,0.670 238.749 M5.348 259.554 C 5.204 260.007,5.192 260.483,5.321 260.612 C 5.450 260.741,5.556 260.530,5.556 260.143 C 5.556 259.653,5.754 259.515,6.207 259.689 C 6.752 259.898,6.776 259.840,6.357 259.334 C 5.712 258.558,5.660 258.569,5.348 259.554 M12.327 273.736 C 12.282 274.658,13.102 275.794,13.804 275.782 C 14.423 275.771,14.419 275.732,13.764 275.351 C 13.368 275.121,12.889 274.546,12.698 274.073 C 12.508 273.601,12.341 273.449,12.327 273.736 M15.692 278.941 C 15.420 279.379,16.046 279.853,16.413 279.487 C 16.790 279.109,16.720 278.571,16.293 278.571 C 16.088 278.571,15.817 278.738,15.692 278.941 M25.430 289.001 C 25.521 289.063,25.892 289.339,26.254 289.616 C 26.764 290.004,26.980 290.010,27.209 289.640 C 27.396 289.338,27.336 289.267,27.045 289.446 C 26.793 289.602,26.587 289.540,26.587 289.309 C 26.587 289.078,26.290 288.889,25.926 288.889 C 25.562 288.889,25.339 288.939,25.430 289.001 M259.516 392.271 C 258.698 393.257,259.470 393.485,260.417 392.537 C 261.117 391.838,261.163 391.667,260.653 391.667 C 260.303 391.667,259.792 391.939,259.516 392.271 " stroke="none" fill="#405cb8" fill-rule="evenodd"></path><path id="path3" d="M128.968 6.746 C 128.151 7.563,127.925 8.333,128.502 8.333 C 128.888 8.333,130.556 6.620,130.556 6.224 C 130.556 5.698,129.753 5.961,128.968 6.746 M121.500 9.636 C 120.861 10.406,120.165 12.394,120.636 12.102 C 120.854 11.968,121.032 11.601,121.032 11.286 C 121.032 10.972,121.389 10.357,121.825 9.921 C 122.262 9.484,122.462 9.127,122.271 9.127 C 122.079 9.127,121.732 9.356,121.500 9.636 M111.688 16.847 C 110.615 17.920,110.479 18.458,111.172 18.887 C 111.442 19.054,111.523 18.997,111.370 18.748 C 110.956 18.079,111.512 17.089,112.646 16.472 C 113.221 16.160,113.459 15.898,113.176 15.889 C 112.894 15.880,112.224 16.311,111.688 16.847 M112.502 17.855 C 112.106 18.293,111.966 18.651,112.191 18.651 C 112.691 18.651,113.681 17.517,113.414 17.250 C 113.309 17.145,112.898 17.417,112.502 17.855 M108.209 19.544 C 107.503 20.065,106.502 22.817,107.168 22.405 C 107.373 22.279,107.540 21.856,107.540 21.467 C 107.540 20.732,108.489 19.710,109.524 19.329 C 110.038 19.140,110.035 19.106,109.500 19.079 C 109.160 19.062,108.579 19.271,108.209 19.544 M101.172 30.590 C 100.542 31.767,100.862 31.842,101.705 30.715 C 102.097 30.191,102.237 29.762,102.017 29.762 C 101.796 29.762,101.416 30.134,101.172 30.590 M102.551 31.122 C 102.131 31.430,101.925 31.819,102.093 31.988 C 102.262 32.156,102.697 31.996,103.061 31.633 C 103.919 30.775,103.542 30.398,102.551 31.122 M141.270 35.359 C 141.270 35.788,142.735 35.837,142.994 35.417 C 143.095 35.253,142.749 35.093,142.224 35.062 C 141.699 35.030,141.270 35.164,141.270 35.359 M154.808 40.156 C 154.757 40.903,156.192 42.072,157.132 42.048 C 157.465 42.039,157.174 41.787,156.484 41.487 C 155.794 41.187,155.145 40.613,155.042 40.213 C 154.882 39.592,154.847 39.583,154.808 40.156 M297.900 40.343 C 297.784 40.530,297.924 41.005,298.211 41.397 C 298.576 41.896,298.819 41.973,299.017 41.652 C 299.173 41.400,299.032 40.926,298.705 40.598 C 298.378 40.271,298.015 40.156,297.900 40.343 M299.726 52.579 C 299.728 53.889,299.802 54.377,299.891 53.664 C 299.979 52.950,299.977 51.879,299.887 51.283 C 299.796 50.686,299.724 51.270,299.726 52.579 M134.708 57.064 C 134.474 57.229,134.667 57.686,135.186 58.193 C 135.825 58.817,136.111 58.907,136.256 58.528 C 136.504 57.882,135.241 56.687,134.708 57.064 M140.235 61.739 C 140.368 62.084,140.476 62.530,140.476 62.731 C 140.476 63.190,140.907 63.187,141.641 62.723 C 142.113 62.424,142.122 62.255,141.692 61.737 C 141.003 60.907,139.917 60.908,140.235 61.739 M100.000 92.022 C 100.000 92.249,100.299 92.321,100.664 92.181 C 101.167 91.987,101.266 92.087,101.073 92.590 C 100.933 92.955,101.005 93.254,101.232 93.254 C 101.459 93.254,101.586 92.944,101.513 92.564 C 101.370 91.824,100.000 91.333,100.000 92.022 M129.266 93.155 C 141.979 93.213,162.783 93.213,175.496 93.155 C 188.209 93.097,177.808 93.049,152.381 93.049 C 126.954 93.049,116.553 93.097,129.266 93.155 M55.258 100.274 C 55.640 100.373,56.265 100.373,56.647 100.274 C 57.029 100.174,56.716 100.092,55.952 100.092 C 55.188 100.092,54.876 100.174,55.258 100.274 M32.693 107.316 C 32.572 107.630,32.235 107.795,31.943 107.682 C 31.222 107.406,29.762 108.230,29.762 108.914 C 29.762 109.218,29.481 109.748,29.138 110.091 C 28.795 110.434,28.688 110.714,28.901 110.714 C 29.113 110.714,29.667 110.070,30.132 109.282 C 30.767 108.205,31.172 107.901,31.763 108.056 C 32.278 108.191,32.690 108.000,32.956 107.504 C 33.179 107.087,33.260 106.746,33.136 106.746 C 33.013 106.746,32.813 107.003,32.693 107.316 M31.160 109.373 C 30.807 109.726,30.621 110.118,30.746 110.243 C 30.872 110.369,31.366 110.080,31.845 109.601 C 32.324 109.122,32.511 108.730,32.259 108.730 C 32.008 108.730,31.514 109.019,31.160 109.373 M14.026 124.385 C 12.903 124.874,11.933 126.351,12.416 126.834 C 12.519 126.937,12.713 126.584,12.847 126.050 C 12.999 125.442,13.536 124.924,14.283 124.663 C 14.939 124.435,15.476 124.149,15.476 124.029 C 15.476 123.749,15.504 123.742,14.026 124.385 M7.143 137.945 C 7.143 138.473,7.251 138.500,7.738 138.095 C 8.065 137.824,8.333 137.534,8.333 137.451 C 8.333 137.369,8.065 137.302,7.738 137.302 C 7.411 137.302,7.143 137.591,7.143 137.945 M6.147 138.499 C 6.010 138.720,5.708 138.785,5.477 138.642 C 5.239 138.495,5.132 138.611,5.231 138.908 C 5.328 139.198,5.663 139.515,5.977 139.613 C 6.291 139.711,6.415 139.649,6.253 139.476 C 6.092 139.302,6.158 138.921,6.401 138.628 C 6.644 138.335,6.743 138.095,6.620 138.095 C 6.497 138.095,6.284 138.277,6.147 138.499 M295.023 164.258 C 295.145 164.457,294.833 164.946,294.328 165.345 C 292.808 166.548,292.561 167.725,294.051 166.664 C 295.634 165.537,296.221 164.443,295.409 164.132 C 295.074 164.003,294.900 164.060,295.023 164.258 M290.774 171.151 C 290.096 171.419,289.683 171.879,289.683 172.368 C 289.683 173.130,289.711 173.127,290.601 172.291 C 291.106 171.817,291.731 171.429,291.990 171.429 C 292.249 171.429,292.460 171.250,292.460 171.032 C 292.460 170.561,292.222 170.578,290.774 171.151 M269.157 188.889 C 269.224 189.781,269.841 189.921,270.556 189.206 C 271.291 188.471,271.125 188.095,270.064 188.095 C 269.342 188.095,269.112 188.296,269.157 188.889 M259.751 192.290 C 259.330 192.598,259.112 192.974,259.265 193.127 C 259.418 193.280,259.840 193.108,260.204 192.744 C 261.061 191.887,260.740 191.567,259.751 192.290 M260.993 193.092 C 260.601 193.618,260.031 194.048,259.727 194.048 C 259.423 194.048,259.068 194.219,258.938 194.429 C 258.582 195.005,260.986 194.081,261.522 193.435 C 261.774 193.132,261.918 192.716,261.843 192.510 C 261.768 192.305,261.386 192.567,260.993 193.092 M107.546 211.024 C 107.536 211.873,108.747 212.060,109.455 211.319 C 110.083 210.663,110.070 210.655,109.214 211.166 C 108.439 211.629,108.255 211.621,107.930 211.111 C 107.666 210.696,107.550 210.670,107.546 211.024 M102.646 218.122 C 102.500 218.267,102.381 218.701,102.381 219.085 C 102.381 219.469,101.910 220.154,101.335 220.606 C 100.760 221.058,100.458 221.429,100.664 221.429 C 101.446 221.429,102.398 220.388,102.752 219.147 C 103.128 217.828,103.110 217.657,102.646 218.122 M100.389 219.256 C 100.113 219.588,99.997 219.971,100.132 220.106 C 100.420 220.394,101.587 219.506,101.587 218.999 C 101.587 218.452,100.941 218.591,100.389 219.256 M0.670 238.749 C 1.206 238.865,1.605 239.311,1.711 239.910 C 1.860 240.757,1.876 240.741,1.834 239.787 C 1.796 238.914,1.584 238.677,0.794 238.625 C -0.033 238.571,-0.054 238.592,0.670 238.749 M5.348 259.554 C 5.204 260.007,5.192 260.483,5.321 260.612 C 5.450 260.741,5.556 260.530,5.556 260.143 C 5.556 259.653,5.754 259.515,6.207 259.689 C 6.752 259.898,6.776 259.840,6.357 259.334 C 5.712 258.558,5.660 258.569,5.348 259.554 M12.327 273.736 C 12.282 274.658,13.102 275.794,13.804 275.782 C 14.423 275.771,14.419 275.732,13.764 275.351 C 13.368 275.121,12.889 274.546,12.698 274.073 C 12.508 273.601,12.341 273.449,12.327 273.736 M15.692 278.941 C 15.420 279.379,16.046 279.853,16.413 279.487 C 16.790 279.109,16.720 278.571,16.293 278.571 C 16.088 278.571,15.817 278.738,15.692 278.941 M25.430 289.001 C 25.521 289.063,25.892 289.339,26.254 289.616 C 26.764 290.004,26.980 290.010,27.209 289.640 C 27.396 289.338,27.336 289.267,27.045 289.446 C 26.793 289.602,26.587 289.540,26.587 289.309 C 26.587 289.078,26.290 288.889,25.926 288.889 C 25.562 288.889,25.339 288.939,25.430 289.001 M259.516 392.271 C 258.698 393.257,259.470 393.485,260.417 392.537 C 261.117 391.838,261.163 391.667,260.653 391.667 C 260.303 391.667,259.792 391.939,259.516 392.271 " stroke="none" fill="#405cb8" fill-rule="evenodd"></path><path id="path4" d="M128.968 6.746 C 128.151 7.563,127.925 8.333,128.502 8.333 C 128.888 8.333,130.556 6.620,130.556 6.224 C 130.556 5.698,129.753 5.961,128.968 6.746 M121.500 9.636 C 120.861 10.406,120.165 12.394,120.636 12.102 C 120.854 11.968,121.032 11.601,121.032 11.286 C 121.032 10.972,121.389 10.357,121.825 9.921 C 122.262 9.484,122.462 9.127,122.271 9.127 C 122.079 9.127,121.732 9.356,121.500 9.636 M111.688 16.847 C 110.615 17.920,110.479 18.458,111.172 18.887 C 111.442 19.054,111.523 18.997,111.370 18.748 C 110.956 18.079,111.512 17.089,112.646 16.472 C 113.221 16.160,113.459 15.898,113.176 15.889 C 112.894 15.880,112.224 16.311,111.688 16.847 M112.502 17.855 C 112.106 18.293,111.966 18.651,112.191 18.651 C 112.691 18.651,113.681 17.517,113.414 17.250 C 113.309 17.145,112.898 17.417,112.502 17.855 M108.209 19.544 C 107.503 20.065,106.502 22.817,107.168 22.405 C 107.373 22.279,107.540 21.856,107.540 21.467 C 107.540 20.732,108.489 19.710,109.524 19.329 C 110.038 19.140,110.035 19.106,109.500 19.079 C 109.160 19.062,108.579 19.271,108.209 19.544 M101.172 30.590 C 100.542 31.767,100.862 31.842,101.705 30.715 C 102.097 30.191,102.237 29.762,102.017 29.762 C 101.796 29.762,101.416 30.134,101.172 30.590 M102.551 31.122 C 102.131 31.430,101.925 31.819,102.093 31.988 C 102.262 32.156,102.697 31.996,103.061 31.633 C 103.919 30.775,103.542 30.398,102.551 31.122 M141.270 35.359 C 141.270 35.788,142.735 35.837,142.994 35.417 C 143.095 35.253,142.749 35.093,142.224 35.062 C 141.699 35.030,141.270 35.164,141.270 35.359 M154.808 40.156 C 154.757 40.903,156.192 42.072,157.132 42.048 C 157.465 42.039,157.174 41.787,156.484 41.487 C 155.794 41.187,155.145 40.613,155.042 40.213 C 154.882 39.592,154.847 39.583,154.808 40.156 M297.900 40.343 C 297.784 40.530,297.924 41.005,298.211 41.397 C 298.576 41.896,298.819 41.973,299.017 41.652 C 299.173 41.400,299.032 40.926,298.705 40.598 C 298.378 40.271,298.015 40.156,297.900 40.343 M299.726 52.579 C 299.728 53.889,299.802 54.377,299.891 53.664 C 299.979 52.950,299.977 51.879,299.887 51.283 C 299.796 50.686,299.724 51.270,299.726 52.579 M134.708 57.064 C 134.474 57.229,134.667 57.686,135.186 58.193 C 135.825 58.817,136.111 58.907,136.256 58.528 C 136.504 57.882,135.241 56.687,134.708 57.064 M140.235 61.739 C 140.368 62.084,140.476 62.530,140.476 62.731 C 140.476 63.190,140.907 63.187,141.641 62.723 C 142.113 62.424,142.122 62.255,141.692 61.737 C 141.003 60.907,139.917 60.908,140.235 61.739 M100.000 92.022 C 100.000 92.249,100.299 92.321,100.664 92.181 C 101.167 91.987,101.266 92.087,101.073 92.590 C 100.933 92.955,101.005 93.254,101.232 93.254 C 101.459 93.254,101.586 92.944,101.513 92.564 C 101.370 91.824,100.000 91.333,100.000 92.022 M129.266 93.155 C 141.979 93.213,162.783 93.213,175.496 93.155 C 188.209 93.097,177.808 93.049,152.381 93.049 C 126.954 93.049,116.553 93.097,129.266 93.155 M55.258 100.274 C 55.640 100.373,56.265 100.373,56.647 100.274 C 57.029 100.174,56.716 100.092,55.952 100.092 C 55.188 100.092,54.876 100.174,55.258 100.274 M32.693 107.316 C 32.572 107.630,32.235 107.795,31.943 107.682 C 31.222 107.406,29.762 108.230,29.762 108.914 C 29.762 109.218,29.481 109.748,29.138 110.091 C 28.795 110.434,28.688 110.714,28.901 110.714 C 29.113 110.714,29.667 110.070,30.132 109.282 C 30.767 108.205,31.172 107.901,31.763 108.056 C 32.278 108.191,32.690 108.000,32.956 107.504 C 33.179 107.087,33.260 106.746,33.136 106.746 C 33.013 106.746,32.813 107.003,32.693 107.316 M31.160 109.373 C 30.807 109.726,30.621 110.118,30.746 110.243 C 30.872 110.369,31.366 110.080,31.845 109.601 C 32.324 109.122,32.511 108.730,32.259 108.730 C 32.008 108.730,31.514 109.019,31.160 109.373 M14.026 124.385 C 12.903 124.874,11.933 126.351,12.416 126.834 C 12.519 126.937,12.713 126.584,12.847 126.050 C 12.999 125.442,13.536 124.924,14.283 124.663 C 14.939 124.435,15.476 124.149,15.476 124.029 C 15.476 123.749,15.504 123.742,14.026 124.385 M7.143 137.945 C 7.143 138.473,7.251 138.500,7.738 138.095 C 8.065 137.824,8.333 137.534,8.333 137.451 C 8.333 137.369,8.065 137.302,7.738 137.302 C 7.411 137.302,7.143 137.591,7.143 137.945 M6.147 138.499 C 6.010 138.720,5.708 138.785,5.477 138.642 C 5.239 138.495,5.132 138.611,5.231 138.908 C 5.328 139.198,5.663 139.515,5.977 139.613 C 6.291 139.711,6.415 139.649,6.253 139.476 C 6.092 139.302,6.158 138.921,6.401 138.628 C 6.644 138.335,6.743 138.095,6.620 138.095 C 6.497 138.095,6.284 138.277,6.147 138.499 M295.023 164.258 C 295.145 164.457,294.833 164.946,294.328 165.345 C 292.808 166.548,292.561 167.725,294.051 166.664 C 295.634 165.537,296.221 164.443,295.409 164.132 C 295.074 164.003,294.900 164.060,295.023 164.258 M290.774 171.151 C 290.096 171.419,289.683 171.879,289.683 172.368 C 289.683 173.130,289.711 173.127,290.601 172.291 C 291.106 171.817,291.731 171.429,291.990 171.429 C 292.249 171.429,292.460 171.250,292.460 171.032 C 292.460 170.561,292.222 170.578,290.774 171.151 M269.157 188.889 C 269.224 189.781,269.841 189.921,270.556 189.206 C 271.291 188.471,271.125 188.095,270.064 188.095 C 269.342 188.095,269.112 188.296,269.157 188.889 M259.751 192.290 C 259.330 192.598,259.112 192.974,259.265 193.127 C 259.418 193.280,259.840 193.108,260.204 192.744 C 261.061 191.887,260.740 191.567,259.751 192.290 M260.993 193.092 C 260.601 193.618,260.031 194.048,259.727 194.048 C 259.423 194.048,259.068 194.219,258.938 194.429 C 258.582 195.005,260.986 194.081,261.522 193.435 C 261.774 193.132,261.918 192.716,261.843 192.510 C 261.768 192.305,261.386 192.567,260.993 193.092 M107.546 211.024 C 107.536 211.873,108.747 212.060,109.455 211.319 C 110.083 210.663,110.070 210.655,109.214 211.166 C 108.439 211.629,108.255 211.621,107.930 211.111 C 107.666 210.696,107.550 210.670,107.546 211.024 M102.646 218.122 C 102.500 218.267,102.381 218.701,102.381 219.085 C 102.381 219.469,101.910 220.154,101.335 220.606 C 100.760 221.058,100.458 221.429,100.664 221.429 C 101.446 221.429,102.398 220.388,102.752 219.147 C 103.128 217.828,103.110 217.657,102.646 218.122 M100.389 219.256 C 100.113 219.588,99.997 219.971,100.132 220.106 C 100.420 220.394,101.587 219.506,101.587 218.999 C 101.587 218.452,100.941 218.591,100.389 219.256 M0.670 238.749 C 1.206 238.865,1.605 239.311,1.711 239.910 C 1.860 240.757,1.876 240.741,1.834 239.787 C 1.796 238.914,1.584 238.677,0.794 238.625 C -0.033 238.571,-0.054 238.592,0.670 238.749 M5.348 259.554 C 5.204 260.007,5.192 260.483,5.321 260.612 C 5.450 260.741,5.556 260.530,5.556 260.143 C 5.556 259.653,5.754 259.515,6.207 259.689 C 6.752 259.898,6.776 259.840,6.357 259.334 C 5.712 258.558,5.660 258.569,5.348 259.554 M12.327 273.736 C 12.282 274.658,13.102 275.794,13.804 275.782 C 14.423 275.771,14.419 275.732,13.764 275.351 C 13.368 275.121,12.889 274.546,12.698 274.073 C 12.508 273.601,12.341 273.449,12.327 273.736 M15.692 278.941 C 15.420 279.379,16.046 279.853,16.413 279.487 C 16.790 279.109,16.720 278.571,16.293 278.571 C 16.088 278.571,15.817 278.738,15.692 278.941 M25.430 289.001 C 25.521 289.063,25.892 289.339,26.254 289.616 C 26.764 290.004,26.980 290.010,27.209 289.640 C 27.396 289.338,27.336 289.267,27.045 289.446 C 26.793 289.602,26.587 289.540,26.587 289.309 C 26.587 289.078,26.290 288.889,25.926 288.889 C 25.562 288.889,25.339 288.939,25.430 289.001 M259.516 392.271 C 258.698 393.257,259.470 393.485,260.417 392.537 C 261.117 391.838,261.163 391.667,260.653 391.667 C 260.303 391.667,259.792 391.939,259.516 392.271 " stroke="none" fill="#405cb8" fill-rule="evenodd"></path></g></svg>